HIERARCHY
ROOT Hips
{
  OFFSET 40.9569 92.9089 9.15813
  CHANNELS 6 Xposition Yposition Zposition Zrotation Xrotation Yrotation
  JOINT spine
  {
    OFFSET 0 7.4756 0.429885
    CHANNELS 3 Zrotation Xrotation Yrotation
    JOINT spine1
    {
      OFFSET 0 9.92301 0
      CHANNELS 3 Zrotation Xrotation Yrotation
      JOINT spine2
      {
        OFFSET 0 9.50804 0
        CHANNELS 3 Zrotation Xrotation Yrotation
        JOINT Neck
        {
          OFFSET 0 24.4111 1.16384
          CHANNELS 3 Zrotation Xrotation Yrotation
          JOINT Head
          {
            OFFSET 0 7.37523 0
            CHANNELS 3 Zrotation Xrotation Yrotation
            End Site
            {
              OFFSET 0 17.8522 -5.88741
            }
          }
        }
        JOINT RightShoulder
        {
          OFFSET -4.00356 10.2679 -0.557468
          CHANNELS 3 Zrotation Xrotation Yrotation
          JOINT RightArm
          {
            OFFSET 0 13.4673 0
            CHANNELS 3 Zrotation Xrotation Yrotation
            JOINT RightArmRoll
            {
              OFFSET 0 6.79858 0
              CHANNELS 3 Zrotation Xrotation Yrotation
              JOINT RightForeArm
              {
                OFFSET 0 19.8018 0
                CHANNELS 3 Zrotation Xrotation Yrotation
                JOINT RightForeArmRoll
                {
                  OFFSET 0 7.62905 0
                  CHANNELS 3 Zrotation Xrotation Yrotation
                  JOINT RightHand
                  {
                    OFFSET 0 15.3098 0
                    CHANNELS 3 Zrotation Xrotation Yrotation
                    End Site
                    {
                      OFFSET 0 0 0
                    }
                  }
                }
              }
            }
          }
        }
        JOINT LeftShoulder
        {
          OFFSET 4.00356 10.2679 -0.557468
          CHANNELS 3 Zrotation Xrotation Yrotation
          JOINT LeftArm
          {
            OFFSET 0 13.4673 0
            CHANNELS 3 Zrotation Xrotation Yrotation
            JOINT LeftArmRoll
            {
              OFFSET 0 6.79858 0
              CHANNELS 3 Zrotation Xrotation Yrotation
              JOINT LeftForeArm
              {
                OFFSET 0 19.8018 0
                CHANNELS 3 Zrotation Xrotation Yrotation
                JOINT LeftForeArmRoll
                {
                  OFFSET 0 7.62905 0
                  CHANNELS 3 Zrotation Xrotation Yrotation
                  JOINT LeftHand
                  {
                    OFFSET 0 15.3098 0
                    CHANNELS 3 Zrotation Xrotation Yrotation
                    End Site
                    {
                      OFFSET 0 0 0
                    }
                  }
                }
              }
            }
          }
        }
      }
    }
  }
  JOINT RightUpLeg
  {
    OFFSET -6.62609 -1.21505 -1.01927
    CHANNELS 3 Zrotation Xrotation Yrotation
    JOINT RightUpLegRoll
    {
      OFFSET 0 17.9517 0
      CHANNELS 3 Zrotation Xrotation Yrotation
      JOINT RightLeg
      {
        OFFSET 0 -22.2304 0
        CHANNELS 3 Zrotation Xrotation Yrotation
        JOINT RightLegRoll
        {
          OFFSET 0 22.3032 0
          CHANNELS 3 Zrotation Xrotation Yrotation
          JOINT RightFoot
          {
            OFFSET 0 18.5636 0
            CHANNELS 3 Zrotation Xrotation Yrotation
            JOINT RightToeBase
            {
              OFFSET 0 15.5183 0
              CHANNELS 3 Zrotation Xrotation Yrotation
              End Site
              {
                OFFSET 0.00657761 7.51539 -0.866263
              }
            }
          }
        }
      }
    }
  }
  JOINT LeftUpLeg
  {
    OFFSET 6.62609 -1.21505 -1.01927
    CHANNELS 3 Zrotation Xrotation Yrotation
    JOINT LeftUpLegRoll
    {
      OFFSET 0 17.9518 0
      CHANNELS 3 Zrotation Xrotation Yrotation
      JOINT LeftLeg
      {
        OFFSET 0 22.2303 0
        CHANNELS 3 Zrotation Xrotation Yrotation
        JOINT LeftLegRoll
        {
          OFFSET 0 22.5093 0
          CHANNELS 3 Zrotation Xrotation Yrotation
          JOINT LeftFoot
          {
            OFFSET 0 18.3575 0
            CHANNELS 3 Zrotation Xrotation Yrotation
            JOINT LeftToeBase
            {
              OFFSET 0 15.5183 0
              CHANNELS 3 Zrotation Xrotation Yrotation
              End Site
              {
                OFFSET -0.029478 7.51538 -0.866263
              }
            }
          }
        }
      }
    }
  }
}
MOTION
Frames: 11
Frame Time: 0.00208333
40.8733 93.1968 8.4194 2.5906 0.437807 75.0138 -0.127135 -0.924006 0.445534 -0.249259 2.15549 0.893114 -0.260218 3.80048 0.89795 -12.7475 -5.01579 -1.85465 14.3117 4.87421 -2.47604 42.9403 -9.56449 -5.78496 79.1531 73.3583 12.5786 -1.96472e-007 1.44399e-006 -2.88945e-006 11.5571 69.6757 -11.3957 -7.97382e-006 -1.15833e-005 -2.99999 8.02884 -4.95105 0.697332 -72.6482 -5.27252 4.06061 -93.5779 21.1235 -15.98 -1.59372e-006 -9.42339e-007 9.58834e-006 -6.6536 8.59606 1.41072 0.00011748 8.51284e-006 3.00398 -8.02975 -4.9512 -0.697644 -178.589 -2.23809 -1.39614 180 7.01536e-015 178.875 178.187 8.64842 179.715 -6.72989e-006 -5.45177e-006 0.151984 -19.4093 68.9767 20.381 8.26756 26.6827 -4.59844 -177.584 12.1356 1.79941 4.54188e-006 -4.6773e-006 -0.868353 -3.30004 -11.1021 0.0320799 5.39004e-007 -2.5754e-006 -0.135959 18.3126 67.6971 -19.2745 -8.1365 25.2327 3.48774 
40.8849 93.1993 8.38917 2.59085 0.437979 74.9771 -0.125278 -0.923841 0.444677 -0.245625 2.15557 0.890739 -0.25655 3.80056 0.895513 -12.7372 -5.00025 -1.81843 14.2827 4.89721 -2.44442 43.0491 -9.52893 -5.75621 79.6262 73.1023 11.8632 -1.96472e-007 1.44399e-006 -2.88945e-006 11.5366 69.7188 -11.3799 -7.97382e-006 -1.15833e-005 -2.99999 8.02884 -4.95105 0.697332 -72.6879 -5.27497 4.06388 -93.6212 21.1028 -16.0509 -1.59372e-006 -9.42338e-007 9.58834e-006 -6.59248 8.4592 1.39578 0.00011748 8.51284e-006 3.00397 -8.02975 -4.9512 -0.697644 -178.597 -2.22523 -1.39435 180 7.01536e-015 178.875 178.19 8.65819 179.714 -6.72989e-006 -5.45177e-006 0.152741 -19.4071 68.9739 20.3783 8.26712 26.6775 -4.59457 -177.581 12.1329 1.79229 4.54188e-006 -4.6773e-006 -0.868391 -3.30844 -11.0992 0.0314032 5.39004e-007 -2.5754e-006 -0.135997 18.3118 67.6959 -19.2738 -8.1365 25.2327 3.48774 
40.8736 93.1968 8.39332 2.59041 0.437843 74.9408 -0.123325 -0.923766 0.443828 -0.241819 2.15544 0.888367 -0.25271 3.80042 0.893076 -12.7273 -4.98764 -1.78352 14.2532 4.92279 -2.41421 43.1569 -9.49434 -5.72841 80.0887 72.8428 11.1563 -1.96472e-007 1.44399e-006 -2.88945e-006 11.5118 69.7593 -11.3598 -7.97382e-006 -1.15833e-005 -2.99999 8.02884 -4.95105 0.697332 -72.7287 -5.27809 4.06751 -93.6662 21.0812 -16.1244 -1.59372e-006 -9.42338e-007 9.58834e-006 -6.52872 8.32661 1.38123 0.00011748 8.51284e-006 3.00396 -8.02975 -4.9512 -0.697644 -178.604 -2.21287 -1.39322 180 7.01536e-015 178.875 178.194 8.6662 179.713 -6.72989e-006 -5.45177e-006 0.153514 -19.4043 68.9704 20.3751 8.26662 26.6715 -4.59017 -177.578 12.1309 1.78446 4.54188e-006 -4.6773e-006 -0.868431 -3.31715 -11.0966 0.0307069 5.39004e-007 -2.5754e-006 -0.136065 18.3113 67.6951 -19.2736 -8.1365 25.2327 3.48774 
40.8749 93.2095 8.38662 2.58938 0.437488 74.905 -0.121312 -0.923771 0.44298 -0.237911 2.15512 0.886002 -0.248768 3.8001 0.890644 -12.7179 -4.97753 -1.74982 14.2236 4.95043 -2.38527 43.264 -9.46062 -5.70148 80.5408 72.5797 10.4587 -1.96472e-007 1.44399e-006 -2.88945e-006 11.4835 69.7981 -11.3363 -7.97382e-006 -1.15833e-005 -2.99999 8.02884 -4.95105 0.697332 -72.7702 -5.28173 4.07143 -93.713 21.0588 -16.2001 -1.59372e-006 -9.42339e-007 9.58834e-006 -6.46272 8.19794 1.36704 0.00011748 8.51284e-006 3.00395 -8.02975 -4.9512 -0.697644 -178.611 -2.20084 -1.3926 180 7.01536e-015 178.874 178.197 8.67285 179.712 -6.72989e-006 -5.45177e-006 0.154291 -19.4011 68.9665 20.3713 8.26609 26.6652 -4.58542 -177.573 12.1298 1.77609 4.54188e-006 -4.6773e-006 -0.868473 -3.32611 -11.0943 0.0299919 5.39004e-007 -2.5754e-006 -0.136157 18.3112 67.6948 -19.2738 -8.1365 25.2327 3.48774 
40.8798 93.1498 8.37507 2.58782 0.437005 74.8698 -0.119274 -0.923849 0.442128 -0.233972 2.15463 0.883648 -0.244795 3.79962 0.888221 -12.7089 -4.96951 -1.71724 14.1945 4.97957 -2.35745 43.3706 -9.42767 -5.67533 80.9829 72.3132 9.77104 -1.96472e-007 1.44399e-006 -2.88945e-006 11.4526 69.8363 -11.3103 -7.97382e-006 -1.15833e-005 -2.99999 8.02884 -4.95105 0.697332 -72.8119 -5.28575 4.07555 -93.7616 21.0355 -16.2774 -1.59372e-006 -9.42338e-007 9.58834e-006 -6.39486 8.07289 1.3532 0.00011748 8.51284e-006 3.00394 -8.02975 -4.9512 -0.697644 -178.617 -2.18899 -1.39237 180 7.01536e-015 178.874 178.201 8.6785 179.711 -6.72989e-006 -5.45177e-006 0.155058 -19.3976 68.9622 20.3672 8.26554 26.6585 -4.58047 -177.569 12.1293 1.76736 4.54188e-006 -4.6773e-006 -0.868517 -3.33526 -11.0923 0.0292591 5.39004e-007 -2.5754e-006 -0.13627 18.3114 67.6947 -19.2742 -8.1365 25.2327 3.48774 
40.8621 93.1589 8.36535 2.58581 0.436486 74.835 -0.117248 -0.923988 0.441265 -0.230073 2.15399 0.881307 -0.240862 3.79898 0.885813 -12.7005 -4.96315 -1.68569 14.1664 5.00969 -2.33061 43.4769 -9.39538 -5.64986 81.4154 72.0434 9.09403 -1.96472e-007 1.44399e-006 -2.88945e-006 11.4198 69.8745 -11.2826 -7.97382e-006 -1.15833e-005 -2.99999 8.02884 -4.95105 0.697332 -72.8535 -5.29002 4.07976 -93.8119 21.0111 -16.3559 -1.59372e-006 -9.42338e-007 9.58834e-006 -6.32553 7.95112 1.33972 0.00011748 8.51284e-006 3.00393 -8.02975 -4.9512 -0.697644 -178.623 -2.17713 -1.39239 180 7.01536e-015 178.874 178.205 8.68358 179.71 -6.72989e-006 -5.45177e-006 0.155802 -19.394 68.9577 20.363 8.26499 26.6518 -4.57547 -177.564 12.1294 1.75844 4.54188e-006 -4.6773e-006 -0.868563 -3.34451 -11.0906 0.0285095 5.39004e-007 -2.5754e-006 -0.136401 18.3117 67.6948 -19.2748 -8.1365 25.2327 3.48774 
40.8707 93.1521 8.34074 2.58344 0.436024 74.8007 -0.115268 -0.924181 0.440386 -0.226285 2.15324 0.878983 -0.237041 3.79823 0.883422 -12.6926 -4.95804 -1.65508 14.1397 5.04023 -2.3046 43.5832 -9.36366 -5.62498 81.8386 71.7706 8.42819 -1.96472e-007 1.44399e-006 -2.88945e-006 11.3859 69.9139 -11.2544 -7.97382e-006 -1.15833e-005 -2.99999 8.02884 -4.95105 0.697332 -72.8945 -5.29438 4.084 -93.864 20.9856 -16.4352 -1.59372e-006 -9.42338e-007 9.58834e-006 -6.25511 7.83231 1.32656 0.00011748 8.51284e-006 3.00393 -8.02975 -4.9512 -0.697644 -178.629 -2.16511 -1.39253 180 7.01535e-015 178.874 178.209 8.68847 179.709 -6.72989e-006 -5.45177e-006 0.156511 -19.3902 68.9531 20.3587 8.26446 26.6452 -4.57058 -177.559 12.1301 1.74949 4.54188e-006 -4.6773e-006 -0.868609 -3.35382 -11.0892 0.0277441 5.39004e-007 -2.5754e-006 -0.136545 18.312 67.6951 -19.2755 -8.1365 25.2327 3.48774 
40.8746 93.1392 8.34307 2.58079 0.435711 74.7669 -0.113371 -0.924418 0.439484 -0.222679 2.15238 0.876679 -0.233403 3.79737 0.881055 -12.6851 -4.95375 -1.62529 14.1149 5.07067 -2.27928 43.6898 -9.3324 -5.60061 82.2532 71.4947 7.77402 -1.96472e-007 1.44399e-006 -2.88945e-006 11.3518 69.9553 -11.2263 -7.97382e-006 -1.15833e-005 -2.99999 8.02884 -4.95105 0.697332 -72.9345 -5.2987 4.08816 -93.918 20.9589 -16.5147 -1.59372e-006 -9.42339e-007 9.58834e-006 -6.184 7.71613 1.31372 0.00011748 8.51284e-006 3.00392 -8.02975 -4.9512 -0.697644 -178.635 -2.15276 -1.39264 180 7.01535e-015 178.874 178.213 8.69354 179.708 -6.72989e-006 -5.45177e-006 0.15717 -19.3866 68.9486 20.3545 8.26396 26.639 -4.56595 -177.554 12.1313 1.74069 4.54188e-006 -4.6773e-006 -0.868657 -3.36311 -11.0882 0.0269637 5.39004e-007 -2.5754e-006 -0.136699 18.3124 67.6953 -19.2761 -8.1365 25.2327 3.48774 
40.8646 93.1572 8.33668 2.57792 0.435641 74.7337 -0.111593 -0.924689 0.438553 -0.219325 2.15144 0.874398 -0.230018 3.79643 0.878715 -12.6782 -4.94986 -1.59625 14.0926 5.10046 -2.25451 43.7968 -9.3015 -5.57665 82.6597 71.216 7.13196 -1.96472e-007 1.44399e-006 -2.88945e-006 11.3183 69.9996 -11.1994 -7.97382e-006 -1.15833e-005 -2.99999 8.02884 -4.95105 0.697332 -72.973 -5.30284 4.09216 -93.9739 20.931 -16.5941 -1.59372e-006 -9.42338e-007 9.58834e-006 -6.11258 7.60226 1.30119 0.00011748 8.51284e-006 3.00391 -8.02975 -4.9512 -0.697644 -178.641 -2.13991 -1.3926 180 7.01535e-015 178.874 178.217 8.69923 179.707 -6.72989e-006 -5.45177e-006 0.157767 -19.3832 68.9443 20.3506 8.26352 26.6333 -4.56175 -177.549 12.133 1.7322 4.54188e-006 -4.6773e-006 -0.868706 -3.37232 -11.0874 0.0261694 5.39004e-007 -2.5754e-006 -0.136859 18.3127 67.6955 -19.2767 -8.1365 25.2327 3.48774 
40.878 93.1438 8.32794 2.57493 0.435909 74.7011 -0.109968 -0.924985 0.437588 -0.216295 2.15045 0.872143 -0.226959 3.79544 0.876407 -12.6718 -4.94595 -1.56786 14.0732 5.12905 -2.23013 43.9046 -9.27085 -5.55301 83.0588 70.9347 6.50239 -1.96472e-007 1.44399e-006 -2.88945e-006 11.2861 70.0477 -11.1747 -7.97382e-006 -1.15833e-005 -2.99999 8.02884 -4.95105 0.697332 -73.0098 -5.30666 4.09591 -94.0316 20.9017 -16.6728 -1.59372e-006 -9.42338e-007 9.58834e-006 -6.04124 7.49038 1.28896 0.00011748 8.51284e-006 3.0039 -8.02975 -4.9512 -0.697644 -178.647 -2.1264 -1.39226 180 7.01535e-015 178.874 178.22 8.70591 179.706 -6.72989e-006 -5.45177e-006 0.158289 -19.3802 68.9405 20.347 8.26314 26.6284 -4.55813 -177.546 12.135 1.7242 4.54188e-006 -4.6773e-006 -0.868755 -3.38139 -11.087 0.025362 5.39004e-007 -2.5754e-006 -0.13702 18.3128 67.6954 -19.2771 -8.1365 25.2327 3.48774 
40.8626 93.2102 8.31905 2.57189 0.436612 74.669 -0.108534 -0.925297 0.436583 -0.213659 2.14942 0.869917 -0.224296 3.79441 0.874136 -12.666 -4.94159 -1.54002 14.0572 5.15592 -2.206 44.0134 -9.24036 -5.5296 83.4512 70.6509 5.88564 -1.96472e-007 1.44399e-006 -2.88945e-006 11.2562 70.1006 -11.153 -7.97382e-006 -1.15833e-005 -2.99999 8.02884 -4.95105 0.697332 -73.0442 -5.31001 4.09932 -94.0913 20.8711 -16.7504 -1.59372e-006 -9.42339e-007 9.58834e-006 -5.97038 7.38015 1.27702 0.00011748 8.51284e-006 3.00389 -8.02975 -4.9512 -0.697644 -178.654 -2.11205 -1.3915 180 7.01535e-015 178.874 178.223 8.71397 179.705 -6.72989e-006 -5.45177e-006 0.158723 -19.3776 68.9372 20.344 8.26285 26.6245 -4.55523 -177.543 12.1373 1.71686 4.54188e-006 -4.6773e-006 -0.868805 -3.39024 -11.0869 0.0245425 5.39004e-007 -2.5754e-006 -0.13718 18.3126 67.695 -19.2771 -8.1365 25.2327 3.48774 
